<?xml version="1.0" standalone="no"?>
<!DOCTYPE svg PUBLIC "-//W3C//DTD SVG 20010904//EN"
 "http://www.w3.org/TR/2001/REC-SVG-20010904/DTD/svg10.dtd">
<svg version="1.0" xmlns="http://www.w3.org/2000/svg"
 width="640.000000pt" height="640.000000pt" viewBox="0 0 640.000000 640.000000"
 preserveAspectRatio="xMidYMid meet">
<metadata>
Created by potrace 1.14, written by Peter Selinger 2001-2017
</metadata>
<g transform="translate(0.000000,640.000000) scale(0.100000,-0.100000)"
fill="#000000" stroke="none">
<path d="M2205 6212 c-55 -23 -112 -62 -162 -109 -40 -38 -42 -42 -33 -74 16
-56 44 -72 113 -64 33 4 227 1 431 -6 383 -13 654 -5 679 20 27 27 -12 38
-228 66 -187 24 -221 32 -298 74 -85 47 -116 50 -175 16 -46 -26 -56 -25 -85
11 -24 31 -134 84 -171 83 -17 0 -49 -8 -71 -17z"/>
<path d="M0 6130 c0 -15 7 -20 26 -20 30 0 28 19 -4 31 -18 7 -22 5 -22 -11z"/>
<path d="M4865 5989 c-186 -15 -437 -100 -545 -184 -25 -19 -60 -45 -77 -57
-18 -13 -33 -26 -33 -30 0 -14 74 -8 120 9 70 25 127 21 194 -13 32 -16 62
-37 68 -47 15 -30 1 -64 -31 -75 -30 -10 -228 -8 -372 3 -75 7 -77 7 -97 -22
-25 -35 -92 -180 -92 -199 0 -7 -11 -53 -25 -101 -26 -89 -26 -113 -2 -113 8
0 42 -9 77 -21 104 -34 144 -76 145 -149 l0 -45 185 -7 c187 -6 517 -39 579
-57 48 -15 81 -39 81 -60 0 -14 -19 -25 -79 -45 l-79 -27 -333 1 c-184 1 -354
3 -379 5 -40 3 -289 11 -624 19 l-109 3 -39 42 c-20 23 -43 61 -49 84 -43 160
-193 323 -369 401 -25 11 -47 23 -50 26 -6 8 -136 50 -153 50 -25 0 -52 -191
-52 -374 l0 -168 65 -23 c92 -32 206 -90 269 -139 116 -88 182 -168 254 -311
45 -89 46 -93 52 -210 5 -106 1 -167 -22 -344 -7 -54 14 -171 38 -208 l19 -28
0 47 c0 34 6 54 24 75 13 15 31 43 40 61 13 26 23 32 48 32 74 0 183 24 338
74 103 33 101 43 -8 45 -43 1 -57 -3 -71 -20 -13 -16 -30 -21 -76 -23 -33 -1
-70 -8 -83 -14 -24 -14 -102 -13 -102 0 0 5 6 21 14 36 7 15 22 56 31 92 24
87 28 92 70 74 40 -16 69 -18 60 -4 -3 6 -2 10 3 10 5 0 9 6 9 13 0 6 5 48 11
92 15 117 13 122 -46 155 -47 28 -51 33 -58 77 -4 27 -18 76 -30 111 -13 34
-24 69 -24 77 0 9 -18 45 -40 82 -22 36 -39 67 -38 69 3 3 213 -8 456 -22
l113 -7 21 -41 c95 -187 315 -384 505 -453 188 -69 398 -79 623 -29 77 16 125
34 178 64 41 23 76 42 79 42 4 0 21 11 39 25 18 14 37 25 42 25 15 0 181 169
208 212 14 21 34 48 44 58 11 11 20 28 20 37 0 9 8 26 18 37 26 30 58 145 73
264 28 229 -45 492 -183 662 -61 74 -144 160 -155 160 -5 0 -23 14 -42 30 -48
43 -185 114 -266 139 -118 36 -128 39 -180 45 -27 4 -61 8 -75 10 -14 2 -70 0
-125 -5z"/>
<path d="M2150 5566 c-9 -11 -24 -41 -35 -64 -21 -48 -15 -69 23 -87 12 -5 22
-14 22 -20 0 -5 5 -3 10 5 11 18 14 177 3 183 -5 3 -15 -5 -23 -17z"/>
<path d="M1700 5433 c-112 -22 -142 -24 -290 -19 -122 4 -223 0 -390 -14 -124
-11 -231 -21 -239 -23 -8 -1 190 -1 440 0 485 1 547 7 592 52 12 11 19 22 16
24 -2 2 -60 -7 -129 -20z"/>
<path d="M2367 5426 c-3 -8 -39 -25 -79 -37 -68 -20 -168 -74 -168 -91 0 -5
-8 -8 -18 -8 -9 0 -29 -11 -44 -25 -15 -14 -30 -25 -33 -25 -3 0 -27 -23 -53
-52 -26 -28 -60 -65 -76 -82 -34 -35 -66 -93 -85 -153 -17 -51 -29 -55 -38
-10 -7 31 -7 31 -14 7 -9 -32 -11 -204 -3 -264 7 -46 28 -63 40 -31 4 8 11 15
17 15 5 0 34 18 63 40 29 22 57 40 62 40 5 0 40 17 78 38 150 82 353 124 425
86 34 -17 90 -15 97 4 2 6 -3 12 -12 12 -31 0 -137 63 -134 79 4 18 39 16 50
-2 15 -24 20 4 9 47 -14 57 -14 123 0 131 17 11 49 -26 75 -83 25 -56 45 -82
64 -82 8 0 10 9 6 26 -14 53 -14 181 -1 254 13 76 22 90 85 131 24 16 23 16
-50 22 -70 6 -195 4 -230 -5 -10 -2 -14 3 -12 15 3 21 -14 23 -21 3z"/>
<path d="M460 5359 c-60 -11 -181 -22 -282 -26 -177 -6 -220 -15 -132 -29 51
-7 123 -3 294 20 63 8 169 20 235 27 82 9 112 15 95 20 -40 11 -97 8 -210 -12z"/>
<path d="M6375 5103 c-82 -19 -98 -25 -84 -34 8 -5 35 -9 62 -9 44 0 47 2 47
25 0 14 -1 24 -2 24 -2 -1 -12 -3 -23 -6z"/>
<path d="M2257 4656 c-78 -53 -134 -136 -172 -259 -39 -122 -30 -206 24 -225
77 -27 159 78 235 300 38 110 39 138 10 186 -19 29 -52 28 -97 -2z"/>
<path d="M1703 4537 c-11 -12 -42 -49 -68 -82 -26 -33 -65 -80 -86 -105 -21
-25 -47 -56 -58 -70 l-19 -25 -13 30 c-7 17 -20 39 -29 50 -10 11 -23 43 -30
70 -7 28 -17 57 -22 65 -7 11 -8 10 -3 -5 3 -11 9 -47 12 -80 3 -33 9 -70 14
-83 5 -13 9 -39 9 -58 0 -32 2 -35 23 -29 89 27 177 106 219 197 17 38 34 68
38 68 8 0 42 71 37 76 -2 2 -13 -6 -24 -19z"/>
<path d="M0 4342 l0 -111 283 6 c161 3 287 10 295 16 27 22 1 46 -83 78 -36
13 -204 39 -252 39 -26 0 -36 5 -42 23 -10 26 -53 42 -143 52 l-58 7 0 -110z"/>
<path d="M3000 4419 c-59 -24 -112 -105 -154 -233 -34 -103 -37 -230 -6 -269
48 -61 106 -34 162 75 63 122 117 364 90 404 -8 13 -47 34 -59 33 -4 0 -19 -5
-33 -10z"/>
<path d="M2425 4140 c6 -73 -21 -187 -52 -223 -43 -48 -143 -62 -200 -27 -86
52 -88 161 -4 217 26 18 30 23 14 23 -27 0 -83 -61 -92 -101 -11 -49 4 -94 46
-134 46 -45 97 -59 157 -44 25 6 51 17 57 25 18 22 36 16 42 -15 3 -16 21 -45
40 -65 31 -32 40 -36 86 -36 59 0 93 15 135 59 24 25 30 40 30 78 1 25 -4 48
-9 50 -7 2 -9 -12 -7 -35 7 -68 -66 -132 -149 -132 -35 0 -47 6 -75 36 -45 47
-47 84 -12 194 12 36 37 84 55 108 28 34 31 42 16 40 -41 -3 -61 3 -72 25 -9
18 -10 10 -6 -43z"/>
<path d="M3938 3980 c46 -33 49 -41 26 -64 -8 -9 -11 -16 -4 -16 14 0 70 39
95 68 11 12 27 22 35 23 42 2 -46 16 -114 18 l-80 1 42 -30z"/>
<path d="M6190 3790 c-171 -7 -854 -19 -1420 -25 -157 -2 -296 -7 -309 -12
-48 -19 159 -23 1052 -23 l887 0 0 35 c0 27 -4 35 -17 33 -10 0 -97 -4 -193
-8z"/>
<path d="M6364 3543 c-15 -21 -32 -39 -36 -41 -4 -2 -8 -9 -8 -15 1 -14 80 70
80 84 0 16 -7 10 -36 -28z"/>
<path d="M6268 3439 c-20 -20 -34 -40 -31 -42 2 -3 21 12 40 34 46 51 39 57
-9 8z"/>
<path d="M6196 3365 c-11 -8 -18 -17 -15 -19 2 -2 15 4 28 15 27 22 15 26 -13
4z"/>
<path d="M3190 2958 c1 -32 20 -35 305 -46 237 -8 295 -8 320 3 27 12 16 13
-101 12 -71 0 -135 3 -141 6 -12 8 -286 37 -345 37 -24 0 -38 -5 -38 -12z"/>
<path d="M255 2910 c-10 -16 31 -20 188 -19 103 0 151 4 132 9 -40 11 -314 19
-320 10z"/>
<path d="M618 2893 c7 -3 16 -2 19 1 4 3 -2 6 -13 5 -11 0 -14 -3 -6 -6z"/>
<path d="M778 2893 c6 -2 18 -2 25 0 6 3 1 5 -13 5 -14 0 -19 -2 -12 -5z"/>
<path d="M3 2857 c5 -43 13 -55 28 -40 7 7 4 21 -11 44 l-21 34 4 -38z"/>
<path d="M1177 2803 c-27 -99 -77 -451 -70 -493 11 -63 13 -111 6 -107 -5 3
-2 -16 6 -44 20 -64 47 -64 66 1 37 133 136 348 206 451 22 33 39 62 37 63 -1
2 -14 9 -28 16 -33 17 -104 73 -161 128 l-46 43 -16 -58z"/>
<path d="M33 2795 c-17 -18 -16 -25 1 -25 7 0 16 9 19 20 6 23 -3 25 -20 5z"/>
<path d="M6080 2791 c0 -5 5 -13 10 -16 6 -3 10 -2 10 4 0 5 -4 13 -10 16 -5
3 -10 2 -10 -4z"/>
<path d="M5970 2780 c-12 -8 -11 -10 8 -10 12 0 22 5 22 10 0 13 -11 13 -30 0z"/>
<path d="M70 2772 c0 -6 3 -13 8 -16 4 -2 7 -23 7 -45 0 -36 1 -39 16 -25 14
12 18 12 34 -6 22 -25 32 -19 11 7 -8 10 -29 35 -46 57 -16 21 -30 34 -30 28z
m35 -52 c3 -5 1 -10 -4 -10 -6 0 -11 5 -11 10 0 6 2 10 4 10 3 0 8 -4 11 -10z"/>
<path d="M5438 2753 c-20 -22 -24 -33 -17 -50 5 -13 16 -22 26 -22 17 1 17 2
1 6 -32 8 -25 15 67 70 20 13 20 13 -2 13 -12 0 -28 -7 -37 -15 -8 -8 -21 -15
-28 -15 -7 1 -3 9 11 20 13 11 19 20 14 20 -5 0 -21 -12 -35 -27z"/>
<path d="M6077 2753 c-4 -3 -7 -11 -7 -17 0 -6 5 -5 12 2 6 6 9 14 7 17 -3 3
-9 2 -12 -2z"/>
<path d="M6340 2750 c0 -5 7 -10 16 -10 8 0 12 5 9 10 -3 6 -10 10 -16 10 -5
0 -9 -4 -9 -10z"/>
<path d="M35 2740 c-3 -6 1 -7 9 -4 18 7 21 14 7 14 -6 0 -13 -4 -16 -10z"/>
<path d="M6385 2740 c3 -5 8 -10 11 -10 2 0 4 5 4 10 0 6 -5 10 -11 10 -5 0
-7 -4 -4 -10z"/>
<path d="M3181 2717 c-5 -12 -5 -32 0 -45 14 -36 11 -61 -11 -84 -11 -12 -20
-18 -20 -12 0 5 -6 -2 -13 -16 -12 -25 -15 -25 -149 -28 l-137 -3 -20 -62
c-34 -108 -43 -168 -48 -331 -6 -175 6 -278 39 -335 28 -49 139 -181 152 -181
8 0 11 50 12 163 0 89 6 203 13 252 12 79 22 128 61 286 16 61 67 166 89 181
11 8 18 18 14 22 -4 4 0 4 10 0 36 -13 87 -106 162 -294 43 -107 84 -204 92
-215 7 -11 34 -25 58 -31 l45 -12 0 44 c0 24 -5 78 -10 121 -6 43 -15 116 -21
163 -17 136 -45 219 -95 287 -13 17 -24 36 -24 42 0 6 -4 11 -9 11 -4 0 -28
15 -52 33 -24 18 -63 40 -87 49 -42 17 -43 16 -51 -5z"/>
<path d="M5502 2731 c-11 -7 -10 -9 3 -14 9 -4 13 -3 10 2 -3 5 3 12 12 14 13
3 14 5 3 6 -8 0 -21 -3 -28 -8z"/>
<path d="M5837 2729 c7 -7 15 -10 18 -7 3 3 -2 9 -12 12 -14 6 -15 5 -6 -5z"/>
<path d="M4370 2693 c-126 -68 -188 -135 -228 -248 -20 -54 -21 -75 -17 -220
2 -88 5 -167 5 -175 3 -32 43 -158 71 -225 36 -84 32 -55 -10 79 -40 127 -53
265 -36 375 23 139 71 200 201 254 43 19 107 52 141 74 l63 41 -43 17 c-23 9
-51 27 -62 40 l-20 23 -65 -35z"/>
<path d="M5570 2715 c0 -8 3 -15 6 -15 3 0 12 7 20 15 14 13 13 15 -5 15 -12
0 -21 -6 -21 -15z"/>
<path d="M47 2713 c-12 -11 -7 -19 12 -19 11 0 17 5 14 13 -6 14 -16 17 -26 6z"/>
<path d="M5530 2710 c0 -5 5 -10 10 -10 6 0 10 5 10 10 0 6 -4 10 -10 10 -5 0
-10 -4 -10 -10z"/>
<path d="M5478 2703 c7 -3 16 -2 19 1 4 3 -2 6 -13 5 -11 0 -14 -3 -6 -6z"/>
<path d="M5613 2703 c9 -2 23 -2 30 0 6 3 -1 5 -18 5 -16 0 -22 -2 -12 -5z"/>
<path d="M5675 2700 c4 -6 -6 -10 -22 -10 -22 0 -25 -2 -13 -10 12 -8 8 -10
-15 -11 l-30 -1 33 -10 c23 -8 38 -8 55 1 12 6 14 9 5 7 -10 -3 -18 -1 -18 4
0 6 21 11 48 12 39 1 41 2 13 5 -26 3 -31 7 -20 14 10 6 7 9 -14 9 -16 0 -26
-4 -22 -10z"/>
<path d="M6153 2696 c4 -10 -2 -16 -16 -20 -18 -4 -18 -4 3 -3 14 1 24 6 22
12 -2 5 5 12 15 16 15 7 14 8 -6 8 -16 1 -21 -3 -18 -13z"/>
<path d="M5775 2690 c3 -5 8 -10 11 -10 2 0 4 5 4 10 0 6 -5 10 -11 10 -5 0
-7 -4 -4 -10z"/>
<path d="M5518 2683 c6 -2 18 -2 25 0 6 3 1 5 -13 5 -14 0 -19 -2 -12 -5z"/>
<path d="M5568 2683 c6 -2 18 -2 25 0 6 3 1 5 -13 5 -14 0 -19 -2 -12 -5z"/>
<path d="M106 2661 c-3 -5 5 -12 19 -15 15 -4 25 -14 25 -24 0 -15 2 -15 10
-2 7 12 10 8 10 -15 0 -19 3 -25 8 -17 6 9 14 6 30 -13 26 -30 28 -55 5 -55
-12 0 -14 -3 -6 -11 8 -8 17 -8 31 0 14 7 22 7 25 1 3 -6 4 -5 3 2 -2 7 -9 12
-15 10 -7 -1 -10 2 -6 8 8 14 -71 113 -93 116 -9 2 -18 8 -20 13 -4 13 -19 14
-26 2z"/>
<path d="M5470 2666 c0 -2 14 -6 30 -8 17 -3 30 -1 30 4 0 4 -13 8 -30 8 -16
0 -30 -2 -30 -4z"/>
<path d="M5550 2660 c0 -5 7 -10 15 -10 8 0 15 5 15 10 0 6 -7 10 -15 10 -8 0
-15 -4 -15 -10z"/>
<path d="M5718 2663 c6 -2 18 -2 25 0 6 3 1 5 -13 5 -14 0 -19 -2 -12 -5z"/>
<path d="M105 2630 c3 -5 8 -10 11 -10 2 0 4 5 4 10 0 6 -5 10 -11 10 -5 0 -7
-4 -4 -10z"/>
<path d="M130 2600 c0 -5 5 -10 11 -10 5 0 7 5 4 10 -3 6 -8 10 -11 10 -2 0
-4 -4 -4 -10z"/>
<path d="M250 2473 c0 -13 5 -23 10 -23 13 0 13 11 0 30 -8 12 -10 11 -10 -7z"/>
<path d="M287 2470 c3 -11 9 -22 13 -25 5 -3 6 4 3 15 -3 11 -9 22 -13 25 -5
3 -6 -4 -3 -15z"/>
<path d="M5650 2428 c-15 -6 -20 -12 -12 -15 7 -3 19 1 27 7 11 9 15 9 15 1 0
-6 5 -11 10 -11 6 0 10 4 10 9 0 15 -24 19 -50 9z"/>
<path d="M320 2410 c-8 -5 -12 -11 -9 -14 2 -3 11 -1 19 4 8 5 12 11 9 14 -2
3 -11 1 -19 -4z"/>
<path d="M347 2393 c-4 -3 -7 -11 -7 -17 0 -6 5 -5 12 2 6 6 9 14 7 17 -3 3
-9 2 -12 -2z"/>
<path d="M5707 2393 c-4 -3 -7 -11 -7 -17 0 -6 5 -5 12 2 6 6 9 14 7 17 -3 3
-9 2 -12 -2z"/>
<path d="M5730 2365 c0 -8 2 -15 4 -15 2 0 6 7 10 15 3 8 1 15 -4 15 -6 0 -10
-7 -10 -15z"/>
<path d="M360 2361 c0 -5 9 -11 21 -14 16 -4 18 -3 8 9 -13 16 -29 19 -29 5z"/>
<path d="M5704 2346 c4 -11 2 -22 -4 -26 -11 -7 -3 -40 9 -40 10 0 6 68 -4 77
-4 5 -5 -1 -1 -11z"/>
<path d="M6070 2350 c-13 -8 -12 -10 3 -10 9 0 17 5 17 10 0 12 -1 12 -20 0z"/>
<path d="M5986 2331 c-3 -5 1 -11 9 -14 9 -4 12 -1 8 9 -6 16 -10 17 -17 5z"/>
<path d="M6107 2333 c-10 -9 -9 -103 1 -103 4 0 7 25 8 55 0 30 0 55 -1 55 -1
0 -5 -3 -8 -7z"/>
<path d="M380 2320 c8 -5 17 -7 21 -4 4 2 10 -4 14 -15 7 -23 45 -59 45 -43 0
7 -4 12 -8 12 -4 0 -15 13 -24 28 -10 16 -26 28 -40 29 -17 2 -19 0 -8 -7z"/>
<path d="M5928 2303 c7 -3 16 -2 19 1 4 3 -2 6 -13 5 -11 0 -14 -3 -6 -6z"/>
<path d="M5785 2289 c-13 -6 -4 -7 30 -3 28 4 52 8 54 10 9 8 -65 2 -84 -7z"/>
<path d="M6320 2256 c19 -7 37 -12 39 -10 7 7 -3 12 -39 18 l-35 6 35 -14z"/>
<path d="M6215 2229 c-30 -7 -30 -7 7 -8 20 0 39 3 42 7 6 10 -8 10 -49 1z"/>
<path d="M481 2225 c0 -13 28 -50 33 -44 3 2 -4 15 -14 29 -11 14 -20 21 -19
15z"/>
<path d="M525 2160 c3 -5 8 -10 11 -10 2 0 4 5 4 10 0 6 -5 10 -11 10 -5 0 -7
-4 -4 -10z"/>
<path d="M4914 2086 c-3 -8 -4 -21 -1 -28 3 -8 6 -6 6 5 1 10 6 15 11 12 6 -3
10 -2 10 4 0 17 -20 23 -26 7z"/>
<path d="M4950 2056 c0 -7 12 -17 26 -20 38 -10 41 0 5 19 -26 13 -31 13 -31
1z"/>
<path d="M4930 2031 c0 -12 30 -36 31 -25 0 5 4 0 9 -12 6 -16 109 -81 114
-72 1 2 9 14 18 29 16 25 16 25 -18 26 -19 1 -31 -3 -28 -8 3 -5 12 -9 20 -9
8 0 14 -4 14 -10 0 -20 -56 -3 -84 26 -14 14 -15 19 -4 25 9 6 7 9 -9 9 -13 0
-23 6 -23 13 0 8 -4 7 -10 -3 -8 -13 -10 -12 -10 3 0 9 -4 17 -10 17 -5 0 -10
-4 -10 -9z"/>
<path d="M5105 1920 c-3 -5 -1 -10 4 -10 6 0 11 5 11 10 0 6 -2 10 -4 10 -3 0
-8 -4 -11 -10z"/>
<path d="M5200 1908 c0 -6 -15 -7 -37 -3 -44 8 -40 -1 6 -15 17 -5 31 -5 31 0
0 5 12 10 28 12 l27 3 -27 6 c-16 4 -28 2 -28 -3z"/>
<path d="M5271 1884 c11 -14 8 -15 -27 -10 -28 5 -34 4 -19 -3 11 -5 32 -10
47 -10 15 -1 30 -5 33 -11 8 -13 25 -13 25 1 0 6 -9 13 -20 16 -11 3 -20 10
-20 15 0 5 10 6 21 3 15 -5 19 -4 15 4 -4 6 -21 11 -38 11 -27 0 -29 -2 -17
-16z"/>
<path d="M5357 1839 c5 -4 22 -11 38 -14 20 -5 26 -4 16 3 -11 8 -11 10 0 15
8 2 -3 4 -24 4 -20 -1 -34 -4 -30 -8z"/>
<path d="M5444 1833 c15 -4 16 -7 5 -14 -9 -6 6 -8 41 -5 35 4 44 3 25 -2
l-30 -8 25 -7 c32 -9 55 -9 46 0 -3 4 5 12 19 17 24 10 21 11 -25 13 -28 0
-68 3 -88 6 -20 3 -28 3 -18 0z"/>
<path d="M5602 1807 l-23 -13 26 -12 c14 -7 31 -12 38 -11 7 0 1 5 -12 10 -32
13 -22 21 18 13 21 -5 30 -11 27 -20 -3 -9 1 -14 12 -14 9 0 28 -3 42 -6 22
-4 22 -3 -5 11 l-30 15 49 -5 c73 -8 49 5 -30 16 -38 5 -70 14 -72 19 -5 13
-12 12 -40 -3z"/>
<path d="M5688 1813 c7 -3 16 -2 19 1 4 3 -2 6 -13 5 -11 0 -14 -3 -6 -6z"/>
<path d="M5830 1800 c-18 -12 -2 -12 25 0 13 6 15 9 5 9 -8 0 -22 -4 -30 -9z"/>
<path d="M448 1793 c7 -3 16 -2 19 1 4 3 -2 6 -13 5 -11 0 -14 -3 -6 -6z"/>
<path d="M4680 1769 c-14 -6 -35 -20 -47 -31 -20 -19 -29 -20 -95 -13 -145 14
-174 16 -226 19 -29 1 -57 -1 -63 -4 -6 -4 3 -31 24 -72 19 -35 36 -73 39 -84
4 -10 20 -59 38 -109 18 -49 36 -112 41 -140 33 -168 38 -209 38 -296 1 -99
-16 -257 -29 -274 -4 -5 -10 -25 -13 -43 -8 -39 -96 -222 -107 -222 -4 0 -15
-16 -25 -36 -17 -36 -34 -60 -67 -96 -10 -10 -18 -21 -18 -25 0 -14 -101 -103
-140 -123 -52 -26 -120 -36 -149 -20 -32 17 -54 74 -46 120 5 31 13 41 38 51
32 13 107 79 107 95 0 4 9 17 19 28 43 47 96 183 103 266 9 109 -77 517 -137
645 -7 17 -17 43 -21 60 -10 38 -82 194 -97 209 -17 18 -75 36 -112 36 -18 0
-46 5 -64 11 -39 14 -41 11 -48 -38 -4 -30 1 -52 22 -92 29 -59 131 -321 163
-421 52 -163 79 -318 62 -349 -6 -12 -14 -20 -18 -17 -4 2 -30 -7 -57 -20
-119 -60 -315 -114 -411 -114 -29 0 -36 -5 -49 -36 -8 -19 -42 -64 -76 -99
l-61 -64 6 -53 c3 -29 5 -57 6 -61 0 -5 5 -5 10 -2 6 3 10 -5 10 -19 0 -27
-15 -38 -141 -104 -254 -133 -659 -208 -1184 -219 -350 -7 -585 18 -692 74
-25 14 -34 14 -47 4 -24 -20 -37 19 -48 148 l-11 116 -57 65 c-132 150 -200
260 -200 322 0 56 66 184 172 334 l57 81 0 228 0 228 -133 -6 c-108 -4 -140
-9 -174 -26 -22 -11 -44 -26 -47 -32 -4 -6 -16 -14 -27 -18 -16 -6 -1 -21 94
-91 133 -99 193 -150 176 -150 -7 0 -5 -5 5 -11 24 -14 21 -29 -5 -29 -19 0
-20 -2 -8 -10 10 -7 -10 -10 -65 -10 -44 0 -100 -2 -125 -4 l-45 -4 40 8 c29
6 6 8 -85 8 -179 -2 -212 0 -205 12 4 6 10 8 14 6 4 -3 13 -1 20 3 9 6 7 10
-8 14 -12 3 -21 1 -21 -4 0 -5 -30 -9 -67 -8 -52 1 -62 3 -43 10 21 7 18 8
-17 6 -23 -1 -39 1 -37 5 3 5 -1 8 -9 8 -9 0 -12 -9 -9 -30 2 -18 0 -30 -7
-30 -6 0 -8 7 -5 15 12 30 -11 14 -25 -17 -8 -18 -16 -27 -19 -20 -2 8 -8 9
-15 4 -19 -14 -49 -23 -42 -12 7 12 -9 14 -92 10 -41 -1 -63 2 -63 9 0 6 -7
11 -15 11 -13 0 -15 -75 -15 -615 l0 -615 3200 0 3200 0 0 771 0 772 -40 -6
c-27 -3 -43 -1 -51 9 -9 11 -8 14 7 13 40 -4 84 1 84 10 0 5 -35 7 -80 4 -68
-5 -80 -3 -86 11 -3 9 -10 14 -15 11 -4 -3 -6 -12 -3 -20 4 -8 10 -13 14 -10
4 3 10 -4 13 -15 5 -18 0 -20 -40 -20 -25 0 -42 -4 -38 -9 3 -6 -14 -8 -42 -6
-33 3 -43 1 -33 -6 14 -9 -19 -5 -57 7 -7 2 -13 -1 -13 -6 0 -6 -29 -9 -67 -7
-81 3 -96 24 -38 51 39 19 46 36 14 36 -11 0 -17 5 -14 10 8 13 -27 12 -84 -1
-36 -8 -47 -7 -62 7 -11 9 -19 23 -19 30 0 7 -6 15 -12 17 -10 4 -10 6 0 6 7
1 15 -5 18 -13 3 -8 13 -12 25 -9 18 5 19 6 2 19 -16 12 -16 15 -3 24 8 5 21
8 28 5 22 -8 57 5 71 27 15 24 7 36 -12 19 -10 -8 -33 -9 -78 -3 -35 5 -107
10 -159 12 -52 1 -124 3 -160 4 -557 15 -657 19 -667 29 -10 10 -94 7 -123 -4z
m1205 -520 c61 -5 149 -19 197 -30 83 -19 90 -23 133 -71 73 -81 92 -179 56
-283 -25 -72 -54 -111 -97 -131 -30 -14 -68 -16 -304 -12 -233 4 -272 7 -288
21 -23 21 -31 21 -53 1 -15 -14 -18 -13 -27 15 -14 39 -37 39 -57 1 -21 -41
-44 -38 -62 10 -13 32 -21 40 -37 38 -34 -5 -59 83 -60 212 -1 91 2 112 23
153 13 27 35 54 51 62 56 29 297 35 525 14z m-5187 -26 c-10 -2 -28 -2 -40 0
-13 2 -5 4 17 4 22 1 32 -1 23 -4z"/>
<path d="M5883 1773 c9 -2 23 -2 30 0 6 3 -1 5 -18 5 -16 0 -22 -2 -12 -5z"/>
<path d="M426 1755 c4 -8 8 -15 10 -15 2 0 4 7 4 15 0 8 -4 15 -10 15 -5 0 -7
-7 -4 -15z"/>
<path d="M456 1763 c6 -4 14 -15 17 -23 5 -11 6 -9 4 4 -1 11 -9 21 -17 23
-10 3 -11 2 -4 -4z"/>
<path d="M5800 1752 c-13 -14 -12 -15 5 -9 11 5 22 3 27 -5 5 -8 8 -9 8 -2 0
23 -24 33 -40 16z"/>
<path d="M130 1749 c0 -5 5 -7 10 -4 6 3 10 8 10 11 0 2 -4 4 -10 4 -5 0 -10
-5 -10 -11z"/>
<path d="M188 1743 c7 -3 16 -2 19 1 4 3 -2 6 -13 5 -11 0 -14 -3 -6 -6z"/>
<path d="M516 1735 c4 -8 8 -15 10 -15 2 0 4 7 4 15 0 8 -4 15 -10 15 -5 0 -7
-7 -4 -15z"/>
<path d="M560 1746 c0 -2 9 -6 20 -9 11 -3 18 -1 14 4 -5 9 -34 13 -34 5z"/>
<path d="M6300 1740 c0 -5 5 -10 10 -10 6 0 10 5 10 10 0 6 -4 10 -10 10 -5 0
-10 -4 -10 -10z"/>
<path d="M6200 1731 c46 -6 36 -19 -12 -16 -16 1 -28 -2 -28 -6 0 -4 36 -7 80
-7 44 1 80 5 80 10 0 4 -14 8 -31 8 -17 0 -28 4 -24 10 4 6 -15 9 -52 8 l-58
-1 45 -6z"/>
<path d="M368 1723 c6 -2 18 -2 25 0 6 3 1 5 -13 5 -14 0 -19 -2 -12 -5z"/>
<path d="M96 1705 c4 -8 8 -15 10 -15 2 0 4 7 4 15 0 8 -4 15 -10 15 -5 0 -7
-7 -4 -15z"/>
<path d="M270 1710 c0 -5 9 -10 20 -10 11 0 20 5 20 10 0 6 -9 10 -20 10 -11
0 -20 -4 -20 -10z"/>
<path d="M320 1710 c0 -5 4 -10 9 -10 6 0 13 5 16 10 3 6 -1 10 -9 10 -9 0
-16 -4 -16 -10z"/>
<path d="M570 1710 c-13 -9 -13 -10 0 -9 8 0 24 4 35 9 l20 9 -20 0 c-11 0
-27 -4 -35 -9z"/>
<path d="M640 1693 c-14 -3 -29 -9 -35 -14 -7 -7 0 -8 19 -5 16 3 34 10 40 16
5 5 8 9 6 9 -3 -1 -16 -4 -30 -6z"/>
<path d="M510 1680 c-12 -8 -10 -10 8 -10 13 0 20 4 17 10 -7 12 -6 12 -25 0z"/>
<path d="M6088 1683 c7 -3 16 -2 19 1 4 3 -2 6 -13 5 -11 0 -14 -3 -6 -6z"/>
<path d="M6253 1683 c9 -2 23 -2 30 0 6 3 -1 5 -18 5 -16 0 -22 -2 -12 -5z"/>
<path d="M665 1670 c-3 -5 -2 -10 4 -10 5 0 13 5 16 10 3 6 2 10 -4 10 -5 0
-13 -4 -16 -10z"/>
<path d="M710 1670 c-12 -8 -11 -10 8 -10 12 0 22 5 22 10 0 13 -11 13 -30 0z"/>
<path d="M507 1653 c-14 -13 -6 -20 18 -15 14 2 22 8 19 13 -6 11 -28 12 -37
2z"/>
<path d="M470 1640 c0 -5 5 -10 11 -10 5 0 7 5 4 10 -3 6 -8 10 -11 10 -2 0
-4 -4 -4 -10z"/>
<path d="M595 1641 c-3 -5 -1 -12 5 -16 5 -3 10 1 10 9 0 18 -6 21 -15 7z"/>
<path d="M5961 1551 c-9 -6 -5 -13 13 -25 28 -18 33 -11 13 16 -8 10 -18 13
-26 9z"/>
<path d="M6020 1546 c0 -2 11 -6 25 -8 14 -3 25 -1 25 3 0 5 -11 9 -25 9 -14
0 -25 -2 -25 -4z"/>
<path d="M5890 1520 c0 -5 5 -10 11 -10 5 0 7 5 4 10 -3 6 -8 10 -11 10 -2 0
-4 -4 -4 -10z"/>
<path d="M338 1333 c7 -3 16 -2 19 1 4 3 -2 6 -13 5 -11 0 -14 -3 -6 -6z"/>
<path d="M625 1330 c11 -5 29 -8 40 -8 16 0 15 2 -5 8 -34 11 -60 11 -35 0z"/>
<path d="M391 1314 c0 -11 3 -14 6 -6 3 7 2 16 -1 19 -3 4 -6 -2 -5 -13z"/>
<path d="M561 1316 c2 -2 18 -7 34 -10 17 -3 41 -8 55 -11 23 -6 23 -6 -4 9
-24 14 -97 24 -85 12z"/>
<path d="M813 1313 c-17 -6 -17 -33 0 -33 7 0 13 9 14 20 1 11 1 20 0 19 -1 0
-8 -3 -14 -6z"/>
<path d="M910 1310 c20 -13 33 -13 25 0 -3 6 -14 10 -23 10 -15 0 -15 -2 -2
-10z"/>
<path d="M330 1300 c0 -5 7 -10 16 -10 8 0 12 5 9 10 -3 6 -10 10 -16 10 -5 0
-9 -4 -9 -10z"/>
<path d="M438 1273 c6 -2 18 -2 25 0 6 3 1 5 -13 5 -14 0 -19 -2 -12 -5z"/>
<path d="M556 1268 c3 -4 12 -8 20 -8 8 0 14 4 14 8 0 4 -9 8 -19 8 -11 0 -17
-4 -15 -8z"/>
<path d="M696 1265 c-3 -8 -2 -15 3 -15 5 0 14 7 21 15 10 12 10 15 -3 15 -8
0 -17 -7 -21 -15z"/>
<path d="M853 1273 c9 -2 25 -2 35 0 9 3 1 5 -18 5 -19 0 -27 -2 -17 -5z"/>
<path d="M200 1260 c-12 -8 -9 -10 12 -10 14 0 29 -6 31 -12 4 -8 6 -7 6 3 1
9 -6 20 -15 23 -19 7 -16 8 -34 -4z"/>
<path d="M928 1263 c6 -2 18 -2 25 0 6 3 1 5 -13 5 -14 0 -19 -2 -12 -5z"/>
<path d="M618 1253 c7 -3 16 -2 19 1 4 3 -2 6 -13 5 -11 0 -14 -3 -6 -6z"/>
<path d="M763 1253 c15 -2 39 -2 55 0 15 2 2 4 -28 4 -30 0 -43 -2 -27 -4z"/>
<path d="M873 1253 c9 -2 23 -2 30 0 6 3 -1 5 -18 5 -16 0 -22 -2 -12 -5z"/>
<path d="M140 1240 c0 -5 5 -10 10 -10 6 0 10 5 10 10 0 6 -4 10 -10 10 -5 0
-10 -4 -10 -10z"/>
<path d="M568 1243 c7 -3 16 -2 19 1 4 3 -2 6 -13 5 -11 0 -14 -3 -6 -6z"/>
<path d="M70 1230 l-25 -8 28 -1 c15 -1 27 4 27 9 0 6 -1 10 -2 9 -2 -1 -14
-5 -28 -9z"/>
</g>
</svg>
